<svg width="40" height="39" viewBox="0 0 40 39" fill="none" xmlns="http://www.w3.org/2000/svg">
<path fill-rule="evenodd" clip-rule="evenodd" d="M20 1.74167C9.90833 1.74167 1.73833 9.87 1.73833 19.88C1.73833 27.23 6.14333 33.555 12.4833 36.4C13.1467 36.6983 13.795 36.58 14.3017 36.2C14.5819 35.9818 14.8077 35.7017 14.9616 35.3816C15.1154 35.0615 15.193 34.7101 15.1883 34.355V33.405L12.9267 33.0983C12.9099 33.0961 12.8932 33.0933 12.8767 33.09C11.63 32.8467 10.7883 32.4083 10.1717 31.7767C9.65333 31.245 9.33667 30.6083 9.06833 30.0683L8.975 29.88C8.72699 29.3627 8.45617 28.8566 8.16333 28.3633C7.93833 28.0067 7.76333 27.8233 7.59 27.7083C7.15 27.4167 6.72667 26.9217 6.72667 26.3033C6.72516 26.1254 6.76326 25.9493 6.83821 25.7879C6.91316 25.6264 7.02308 25.4837 7.16 25.37C7.41843 25.1654 7.7405 25.058 8.07 25.0667C8.44 25.0667 8.78833 25.18 9.07833 25.31C9.375 25.4433 9.67 25.62 9.945 25.8033C10.615 26.25 11.275 26.7783 11.8333 27.43C12.415 28.1067 12.8267 28.5367 13.4467 28.625C13.9567 28.6983 14.4767 28.7 14.8817 28.6817C14.938 28.361 15.0308 28.0479 15.1583 27.7483C14.6637 27.6329 14.1757 27.4905 13.6967 27.3217C12.6067 26.935 11.3917 26.3333 10.575 25.4217C9.67833 24.4183 9.12333 23.5233 8.81333 22.4767C8.51167 21.4567 8.46167 20.3517 8.46167 18.9917C8.46167 16.9083 9.36333 15.1533 10.04 14.2217C9.78002 13.406 9.59317 12.5688 9.48167 11.72C9.40782 11.1847 9.40838 10.6418 9.48333 10.1067C9.56667 9.61833 9.775 9.01833 10.3233 8.65667C10.8517 8.305 11.4717 8.32 11.955 8.41C12.4567 8.505 12.9783 8.71333 13.4583 8.95167C14.24 9.33833 15.0167 9.855 15.5983 10.2933C16.6017 9.99833 18.3767 9.61833 19.9817 9.58333H20.0183C21.625 9.61833 23.32 9.99833 24.2983 10.2917C24.8817 9.855 25.6567 9.33667 26.4367 8.95167C26.9167 8.71333 27.4367 8.505 27.94 8.41C28.4233 8.32 29.0433 8.305 29.5733 8.655C30.12 9.01833 30.33 9.61833 30.4117 10.1067C30.4967 10.615 30.4767 11.1833 30.4117 11.72C30.3006 12.5687 30.1144 13.4059 29.855 14.2217C30.5317 15.155 31.4333 16.91 31.4333 18.9917C31.4333 20.3517 31.3833 21.4567 31.0833 22.475C30.7717 23.525 30.2167 24.4183 29.32 25.4217C28.5033 26.3333 27.2883 26.935 26.1983 27.3217C25.6197 27.525 25.0285 27.6904 24.4283 27.8167C24.6333 28.4367 24.7067 28.9383 24.7067 29.2267V34.3767C24.7067 35.16 25.0717 35.8283 25.59 36.2183C26.0933 36.6 26.74 36.7183 27.4033 36.4283C33.8033 33.6083 38.26 27.2667 38.26 19.8783C38.26 9.87 30.0933 1.74167 20 1.74167ZM15.7933 30.35C15.36 30.4117 15.7917 30.35 15.7917 30.35H15.7867L15.7733 30.3533L15.725 30.36C15.4774 30.3891 15.229 30.4097 14.98 30.4217C14.51 30.4433 13.865 30.445 13.2033 30.35C11.885 30.1633 11.0833 29.23 10.565 28.6233L10.515 28.5667C10.3455 28.3701 10.1635 28.1847 9.97 28.0117C10.1417 28.3283 10.32 28.6817 10.5117 29.0617L10.5283 29.095L10.6133 29.2683C10.905 29.8483 11.0967 30.235 11.415 30.5583C11.725 30.875 12.2083 31.1817 13.185 31.375L16.175 31.78C16.3838 31.8083 16.5753 31.9114 16.7139 32.0701C16.8524 32.2289 16.9286 32.4326 16.9283 32.6433V34.355C16.9283 35.6883 16.3033 36.8767 15.345 37.5967C14.8419 37.9811 14.2433 38.2209 13.6139 38.2903C12.9845 38.3596 12.3481 38.2558 11.7733 37.99C4.83667 34.8783 0 27.95 0 19.88C0 8.89333 8.96167 0 20 0C31.0383 0 40 8.89333 40 19.88C40 27.9917 35.1017 34.9383 28.105 38.0233C27.5298 38.284 26.8945 38.3834 26.2671 38.3109C25.6398 38.2384 25.0439 37.9967 24.5433 37.6117C24.0484 37.2306 23.6484 36.7401 23.3749 36.1785C23.1013 35.6169 22.9616 34.9996 22.9667 34.375V29.225C22.9667 29.1083 22.885 28.435 22.43 27.53C22.3672 27.4045 22.3356 27.2657 22.3378 27.1254C22.34 26.9851 22.3759 26.8474 22.4427 26.7239C22.5094 26.6005 22.6049 26.4949 22.721 26.4162C22.8372 26.3375 22.9706 26.2879 23.11 26.2717C23.6817 26.2083 24.645 26.0233 25.6167 25.6783C26.6067 25.3283 27.495 24.8483 28.0233 24.2583C28.8083 23.3817 29.2 22.7083 29.415 21.98C29.6383 21.225 29.695 20.3467 29.695 18.9917C29.695 17.09 28.695 15.4917 28.235 14.9767C28.1306 14.8603 28.0594 14.7179 28.0289 14.5646C27.9984 14.4112 28.0097 14.2525 28.0617 14.105C28.295 13.4483 28.5783 12.4267 28.6867 11.515C28.74 11.0567 28.7433 10.6733 28.6967 10.3967C28.6862 10.2955 28.6556 10.1975 28.6067 10.1083C28.4919 10.0885 28.3743 10.0936 28.2617 10.1233C27.9783 10.1767 27.6167 10.31 27.2067 10.5133C26.39 10.9167 25.54 11.5133 25.0133 11.94C24.8972 12.0342 24.7586 12.0968 24.6111 12.1216C24.4637 12.1464 24.3123 12.1327 24.1717 12.0817C22.8222 11.6402 21.4186 11.3862 20 11.3267C18.3217 11.3667 16.385 11.8433 15.7233 12.0817C15.5827 12.1327 15.4313 12.1464 15.2839 12.1216C15.1364 12.0968 14.9978 12.0342 14.8817 11.94C14.2006 11.3917 13.4657 10.9137 12.6883 10.5133C12.3545 10.338 11.9993 10.2069 11.6317 10.1233C11.5196 10.0938 11.4025 10.0887 11.2883 10.1083C11.2393 10.1975 11.2087 10.2955 11.1983 10.3967C11.1517 10.6733 11.155 11.0567 11.2083 11.515C11.3167 12.4267 11.6017 13.4483 11.8333 14.105C11.9383 14.405 11.8733 14.7383 11.66 14.9767C11.2 15.4917 10.2 17.09 10.2 18.9917C10.2 20.345 10.2567 21.225 10.48 21.98C10.6967 22.7083 11.0867 23.38 11.87 24.2583C12.4 24.8483 13.2867 25.3283 14.2783 25.6783C15.0896 25.9654 15.9295 26.1644 16.7833 26.2717C16.959 26.2905 17.1248 26.3624 17.2586 26.4778C17.3924 26.5932 17.4879 26.7465 17.5324 26.9175C17.5769 27.0885 17.5683 27.269 17.5078 27.435C17.4472 27.6009 17.3375 27.7445 17.1933 27.8467C16.9183 28.0433 16.7367 28.3967 16.635 28.805C16.5825 29.0152 16.5512 29.2302 16.5417 29.4467V29.4783C16.5438 29.6897 16.4691 29.8945 16.3314 30.0549C16.1938 30.2152 16.0025 30.3201 15.7933 30.35Z" fill="#F662F8"/>
</svg>
