<svg width="40" height="40" viewBox="0 0 40 40" fill="none" xmlns="http://www.w3.org/2000/svg">
<path d="M9.62436 13.7304H1.78549C1.52561 13.7304 1.27638 13.8337 1.09262 14.0174C0.908865 14.2012 0.80563 14.4504 0.80563 14.7103V38.2269C0.80563 38.4868 0.908865 38.736 1.09262 38.9198C1.27638 39.1035 1.52561 39.2068 1.78549 39.2068H9.62436C9.88424 39.2068 10.1335 39.1035 10.3172 38.9198C10.501 38.736 10.6042 38.4868 10.6042 38.2269V14.7103C10.6042 14.4504 10.501 14.2012 10.3172 14.0174C10.1335 13.8337 9.88424 13.7304 9.62436 13.7304ZM8.6445 37.247H2.76535V15.6901H8.6445V37.247ZM30.2014 13.7304C28.0751 13.7304 26.0076 14.432 24.3223 15.7274V14.7103C24.3223 14.4504 24.219 14.2012 24.0353 14.0174C23.8515 13.8337 23.6023 13.7304 23.3424 13.7304H15.5035C15.2436 13.7304 14.9944 13.8337 14.8107 14.0174C14.6269 14.2012 14.5237 14.4504 14.5237 14.7103V38.2269C14.5237 38.4868 14.6269 38.736 14.8107 38.9198C14.9944 39.1035 15.2436 39.2068 15.5035 39.2068H23.3424C23.6023 39.2068 23.8515 39.1035 24.0353 38.9198C24.219 38.736 24.3223 38.4868 24.3223 38.2269V27.4484C24.3223 26.6688 24.632 25.9211 25.1832 25.3699C25.7345 24.8186 26.4822 24.5089 27.2618 24.5089C28.0415 24.5089 28.7891 24.8186 29.3404 25.3699C29.8917 25.9211 30.2014 26.6688 30.2014 27.4484V38.2269C30.2014 38.4868 30.3046 38.736 30.4884 38.9198C30.6722 39.1035 30.9214 39.2068 31.1813 39.2068H39.0201C39.28 39.2068 39.5292 39.1035 39.713 38.9198C39.8968 38.736 40 38.4868 40 38.2269V23.529C39.9969 20.9312 38.9635 18.4407 37.1266 16.6038C35.2897 14.7669 32.7992 13.7335 30.2014 13.7304ZM38.0403 37.247H32.1611V27.4484C32.1611 26.1491 31.645 24.9029 30.7262 23.9841C29.8074 23.0653 28.5612 22.5492 27.2618 22.5492C25.9625 22.5492 24.7163 23.0653 23.7975 23.9841C22.8787 24.9029 22.3625 26.1491 22.3625 27.4484V37.247H16.4834V15.6901H22.3625V18.0477C22.3625 18.2506 22.4255 18.4486 22.5427 18.6142C22.66 18.7798 22.8259 18.9049 23.0173 18.9723C23.2088 19.0396 23.4164 19.0458 23.6115 18.9901C23.8067 18.9343 23.9797 18.8194 24.1067 18.6611C25.113 17.3854 26.4924 16.4557 28.0524 16.0014C29.6124 15.5471 31.2753 15.5909 32.8092 16.1268C34.3431 16.6627 35.6715 17.6639 36.6092 18.9908C37.547 20.3178 38.0472 21.9042 38.0403 23.529V37.247ZM6.4261 0.0163068C6.19584 7.75443e-05 5.96476 -0.00123186 5.73432 0.0123872C5.00093 -0.0375138 4.26511 0.0636981 3.57243 0.309754C2.87975 0.555809 2.24496 0.941468 1.7074 1.44284C1.16983 1.94421 0.740936 2.55062 0.447274 3.2245C0.153613 3.89838 0.00144127 4.62538 0.000185909 5.36046C-0.00590034 6.08786 0.137512 6.80876 0.421529 7.47845C0.705546 8.14815 1.12411 8.75235 1.65127 9.25361C2.17844 9.75486 2.80295 10.1425 3.48609 10.3924C4.16924 10.6423 4.89644 10.7493 5.62262 10.7066H5.67749C6.37942 10.7557 7.08416 10.6661 7.75148 10.4429C8.41879 10.2197 9.0356 9.86728 9.5667 9.40569C10.0978 8.94411 10.5328 8.38244 10.8468 7.75275C11.1608 7.12306 11.3478 6.43768 11.3969 5.73574C11.4461 5.03381 11.3565 4.32907 11.1333 3.66176C10.9101 2.99445 10.5576 2.37763 10.0961 1.84653C9.63447 1.31543 9.07279 0.880452 8.4431 0.566421C7.81341 0.25239 7.12804 0.0654614 6.4261 0.0163068ZM6.35751 8.75273C6.13215 8.77233 5.90482 8.77233 5.67749 8.74685H5.62262C5.15097 8.78231 4.67711 8.71903 4.23129 8.56105C3.78548 8.40308 3.3775 8.15387 3.03341 7.82936C2.68931 7.50484 2.41667 7.11215 2.23288 6.67634C2.04908 6.24053 1.95819 5.77118 1.96598 5.29827C1.97378 4.82535 2.0801 4.35926 2.27816 3.92974C2.47622 3.50023 2.76167 3.11673 3.11627 2.80374C3.47087 2.49075 3.88685 2.25513 4.33763 2.11194C4.78841 1.96874 5.2641 1.92112 5.73432 1.97211C6.63349 1.88947 7.52866 2.1674 8.2229 2.74477C8.91714 3.32215 9.35359 4.15166 9.43623 5.05082C9.51887 5.94999 9.24093 6.84516 8.66356 7.5394C8.08619 8.23364 7.25668 8.67009 6.35751 8.75273Z" fill="#F662F8"/>
</svg>
